<?xml version="1.0" standalone="no"?>
<!DOCTYPE svg PUBLIC "-//W3C//DTD SVG 20010904//EN"
 "http://www.w3.org/TR/2001/REC-SVG-20010904/DTD/svg10.dtd">
<svg version="1.0" xmlns="http://www.w3.org/2000/svg"
 width="100.000000pt" height="100.000000pt" viewBox="0 0 100.000000 100.000000"
 preserveAspectRatio="xMidYMid meet">
<metadata>
Created by potrace 1.15, written by Peter Selinger 2001-2017
</metadata>
<g transform="translate(0.000000,100.000000) scale(0.100000,-0.100000)"
fill="#000000" stroke="none">
<path d="M0 500 l0 -500 500 0 500 0 0 500 0 500 -500 0 -500 0 0 -500z m694
397 c39 -20 83 -49 98 -64 l28 -29 -70 -69 -70 -69 -27 26 c-43 40 -73 51
-133 51 -68 0 -106 -18 -158 -78 -149 -170 -11 -451 202 -411 20 4 56 22 80
41 l45 34 66 -72 67 -71 -34 -28 c-18 -15 -60 -42 -93 -60 -58 -32 -65 -33
-170 -33 -102 0 -115 2 -176 31 -126 60 -216 184 -240 329 -30 185 62 380 220
464 79 42 122 51 215 46 65 -3 91 -9 150 -38z"/>
</g>
</svg>
